# Alias OBJ Model File
# Exported from SketchUp, (c) 2000-2012 Trimble Navigation Limited
# File units = millimeters

mtllib cube.mtl

g Mesh1 Model

usemtl Translucent_Glass_Sky_Reflection
v 413.9 0 -1985.9
vt -0.226323 1.0859
vn 0 -1 -0
v 1413.9 0 -1985.9
vt -0.77313 1.0859
v 1413.9 0 -985.902
vt -0.77313 0.539097
v 413.9 0 -985.902
vt -0.226323 0.539097
f 1/1/1 2/2/1 3/3/1 4/4/1 

vt -0.77313 0
vn 0 0 -1
vt -0.226323 0
v 413.9 1000 -1985.9
vt -0.226323 0.546807
v 1413.9 1000 -1985.9
vt -0.77313 0.546807
f 2/5/2 1/6/2 5/7/2 6/8/2 

usemtl Translucent_Glass_Block_Dark
vt -4.34362 0
vn -1 0 -0
vt -2.15639 0
v 413.9 1000 -985.902
vt -2.15639 2.18723
vt -4.34362 2.18723
f 1/9/3 4/10/3 7/11/3 5/12/3 

usemtl Translucent_Resin_Crush_Gray
vt 1.35794 0
vn 0 0 1
vt 4.63878 0
v 1413.9 1000 -985.902
vt 4.63878 3.28084
vt 1.35794 3.28084
f 4/13/4 3/14/4 8/15/4 7/16/4 

vt 3.23458 0
vn 1 0 -0
vt 6.51542 0
vt 6.51542 3.28084
vt 3.23458 3.28084
f 3/17/5 2/18/5 6/19/5 8/20/5 

vt 4.63878 6.51542
vn 0 1 -0
vt 1.35794 6.51542
vt 1.35794 3.23458
vt 4.63878 3.23458
f 6/21/6 5/22/6 7/23/6 8/24/6 

